<svg width="16" height="13" viewBox="0 0 16 13" fill="none" xmlns="http://www.w3.org/2000/svg">
<path d="M14.0087 5.27762C13.6555 5.12254 13.2738 5.04264 12.888 5.04297H2.80174C2.41598 5.0426 2.03435 5.12238 1.68105 5.27727C1.18171 5.49563 0.756798 5.85474 0.458258 6.3107C0.159718 6.76666 0.000477153 7.29971 0 7.84471V11.7672C0 11.9158 0.0590365 12.0583 0.164122 12.1634C0.269208 12.2685 0.411735 12.3275 0.560349 12.3275C0.708962 12.3275 0.851489 12.2685 0.956575 12.1634C1.06166 12.0583 1.1207 11.9158 1.1207 11.7672V11.487C1.12161 11.413 1.15142 11.3422 1.20376 11.2899C1.25611 11.2375 1.32685 11.2077 1.40087 11.2068H14.2889C14.3629 11.2077 14.4337 11.2375 14.486 11.2899C14.5383 11.3422 14.5682 11.413 14.5691 11.487V11.7672C14.5691 11.9158 14.6281 12.0583 14.7332 12.1634C14.8383 12.2685 14.9808 12.3275 15.1294 12.3275C15.278 12.3275 15.4206 12.2685 15.5256 12.1634C15.6307 12.0583 15.6898 11.9158 15.6898 11.7672V7.84471C15.6892 7.29977 15.5299 6.76679 15.2314 6.3109C14.9329 5.85501 14.508 5.49596 14.0087 5.27762Z" fill="currentColor"/>
<path d="M12.0475 0H3.64225C3.1221 0 2.62326 0.206628 2.25546 0.574428C1.88766 0.942228 1.68103 1.44107 1.68103 1.96122V4.48279C1.68105 4.5045 1.68611 4.52591 1.69581 4.54532C1.70552 4.56474 1.71961 4.58164 1.73696 4.59468C1.75431 4.60772 1.77446 4.61655 1.79581 4.62047C1.81717 4.62439 1.83914 4.6233 1.85999 4.61727C2.16589 4.5278 2.48301 4.48252 2.80173 4.48279H2.94987C2.98445 4.48301 3.01788 4.47043 3.04375 4.44748C3.06961 4.42453 3.08607 4.39282 3.08996 4.35846C3.12052 4.08466 3.25087 3.83171 3.45611 3.64791C3.66135 3.46412 3.9271 3.36237 4.2026 3.36209H6.16382C6.4395 3.36211 6.70551 3.46375 6.91097 3.64756C7.11643 3.83138 7.24693 4.08448 7.27751 4.35846C7.2814 4.39282 7.29786 4.42453 7.32372 4.44748C7.34958 4.47043 7.38302 4.48301 7.4176 4.48279H8.27423C8.30881 4.48301 8.34225 4.47043 8.36811 4.44748C8.39397 4.42453 8.41043 4.39282 8.41432 4.35846C8.44486 4.08484 8.57506 3.83203 8.78008 3.64826C8.9851 3.4645 9.25059 3.36263 9.52591 3.36209H11.4871C11.7628 3.36211 12.0288 3.46375 12.2343 3.64756C12.4397 3.83138 12.5702 4.08448 12.6008 4.35846C12.6047 4.39282 12.6212 4.42453 12.647 4.44748C12.6729 4.47043 12.7063 4.48301 12.7409 4.48279H12.888C13.2067 4.48264 13.5239 4.52804 13.8297 4.61762C13.8506 4.62366 13.8726 4.62474 13.894 4.6208C13.9154 4.61687 13.9355 4.608 13.9529 4.59492C13.9703 4.58184 13.9844 4.5649 13.994 4.54544C14.0037 4.52598 14.0087 4.50453 14.0087 4.48279V1.96122C14.0087 1.44107 13.8021 0.942228 13.4343 0.574428C13.0665 0.206628 12.5676 0 12.0475 0Z" fill="currentColor"/>
</svg>
