<svg width="12" height="16" viewBox="0 0 12 16" fill="none" xmlns="http://www.w3.org/2000/svg">
<path fill-rule="evenodd" clip-rule="evenodd" d="M6.00002 3.875C6.4973 3.875 6.97421 3.69721 7.32584 3.38074C7.67747 3.06427 7.87502 2.63505 7.87502 2.1875C7.87502 1.73995 7.67747 1.31072 7.32584 0.994257C6.97421 0.67779 6.4973 0.5 6.00002 0.5C5.50273 0.5 5.02582 0.67779 4.67419 0.994257C4.32256 1.31072 4.12502 1.73995 4.12502 2.1875C4.12502 2.63505 4.32256 3.06427 4.67419 3.38074C5.02582 3.69721 5.50273 3.875 6.00002 3.875ZM11.8 4.79C11.8619 4.98096 11.837 5.18622 11.7307 5.36062C11.6244 5.53503 11.4455 5.6643 11.2333 5.72C10.2433 5.9795 9.34918 6.17525 8.50002 6.30538V14.75C8.50026 14.9432 8.41768 15.129 8.26947 15.2687C8.12126 15.4085 7.91885 15.4913 7.70443 15.5001C7.49 15.5088 7.2801 15.4428 7.11844 15.3157C6.95679 15.1886 6.85586 15.0103 6.83668 14.8179L6.42001 10.6929C6.41777 10.6703 6.41665 10.6477 6.41668 10.625H5.58335C5.58338 10.6477 5.58227 10.6703 5.58002 10.6929L5.16335 14.8179C5.14417 15.0103 5.04324 15.1886 4.88159 15.3157C4.71994 15.4428 4.51003 15.5088 4.2956 15.5001C4.08118 15.4913 3.87877 15.4085 3.73056 15.2687C3.58235 15.129 3.49977 14.9432 3.50002 14.75V6.2915C2.65293 6.16025 1.7621 5.96862 0.777099 5.72262C0.670634 5.69711 0.570847 5.65285 0.483513 5.5924C0.396178 5.53195 0.323029 5.45651 0.268298 5.37045C0.213567 5.2844 0.17834 5.18942 0.164656 5.09103C0.150972 4.99264 0.159102 4.89279 0.188575 4.79725C0.218049 4.7017 0.268281 4.61237 0.336365 4.53441C0.40445 4.45645 0.489035 4.39141 0.585227 4.34307C0.68142 4.29472 0.78731 4.26402 0.89677 4.25275C1.00623 4.24147 1.11709 4.24984 1.22293 4.27737C3.14293 4.75662 4.58543 4.99437 6.00377 5C7.41877 5.00562 8.85793 4.78062 10.7667 4.28C10.9789 4.2243 11.2069 4.24675 11.4007 4.34239C11.5945 4.43803 11.7381 4.59904 11.8 4.79Z" fill="currentColor"/>
</svg>
