<svg width="37" height="37" viewBox="0 0 37 37" fill="none" xmlns="http://www.w3.org/2000/svg">
<path fill-rule="evenodd" clip-rule="evenodd" d="M12.3364 7.01928C16.4934 6.70602 20.6687 6.72665 24.8224 7.08094L27.3261 7.29369C28.2446 7.37224 29.11 7.75728 29.7833 8.38695C30.4565 9.01662 30.8986 9.85435 31.0384 10.7655L31.1956 11.7969C31.7316 15.2932 31.6816 18.8543 31.0476 22.3342C30.8961 23.1662 30.4574 23.9186 29.808 24.4603C29.1586 25.0021 28.3398 25.2988 27.4941 25.2988H13.6561C13.337 25.2988 13.024 25.3774 12.7434 25.5285L6.71398 28.7691C6.53779 28.8638 6.34005 28.9111 6.14009 28.9065C5.94012 28.9019 5.74477 28.8455 5.57312 28.7429C5.40147 28.6402 5.25939 28.4947 5.16077 28.3207C5.06214 28.1467 5.01035 27.9501 5.01044 27.7501V14.6197C5.01083 12.7032 5.73522 10.8576 7.03853 9.45256C8.34184 8.04747 10.1279 7.18662 12.0389 7.0424L12.3364 7.01928ZM12.3334 14.6459C11.8223 14.6459 11.3321 14.8489 10.9707 15.2103C10.6093 15.5717 10.4063 16.0619 10.4063 16.573C10.4063 17.0841 10.6093 17.5742 10.9707 17.9356C11.3321 18.297 11.8223 18.5001 12.3334 18.5001C12.8444 18.5001 13.3346 18.297 13.696 17.9356C14.0574 17.5742 14.2604 17.0841 14.2604 16.573C14.2604 16.0619 14.0574 15.5717 13.696 15.2103C13.3346 14.8489 12.8444 14.6459 12.3334 14.6459ZM18.5 14.6459C17.9889 14.6459 17.4988 14.8489 17.1374 15.2103C16.776 15.5717 16.5729 16.0619 16.5729 16.573C16.5729 17.0841 16.776 17.5742 17.1374 17.9356C17.4988 18.297 17.9889 18.5001 18.5 18.5001C19.0111 18.5001 19.5013 18.297 19.8627 17.9356C20.2241 17.5742 20.4271 17.0841 20.4271 16.573C20.4271 16.0619 20.2241 15.5717 19.8627 15.2103C19.5013 14.8489 19.0111 14.6459 18.5 14.6459ZM22.7396 16.573C22.7396 16.0619 22.9426 15.5717 23.304 15.2103C23.6654 14.8489 24.1556 14.6459 24.6667 14.6459C25.1778 14.6459 25.6679 14.8489 26.0293 15.2103C26.3907 15.5717 26.5938 16.0619 26.5938 16.573C26.5938 17.0841 26.3907 17.5742 26.0293 17.9356C25.6679 18.297 25.1778 18.5001 24.6667 18.5001C24.1556 18.5001 23.6654 18.297 23.304 17.9356C22.9426 17.5742 22.7396 17.0841 22.7396 16.573Z" fill="currentColor"/>
</svg>
