<svg width="13" height="13" viewBox="0 0 13 13" fill="none" xmlns="http://www.w3.org/2000/svg">
<path d="M6.5 0.875C5.52411 0.874672 4.56492 1.12824 3.71669 1.6108C2.86845 2.09335 2.16035 2.78828 1.66196 3.62731C1.16358 4.46634 0.89205 5.4206 0.874064 6.39633C0.856077 7.37205 1.09225 8.33567 1.55938 9.1925L0.893752 11.5269C0.87033 11.6088 0.869706 11.6957 0.891947 11.7779C0.914188 11.8602 0.958451 11.9349 1.01997 11.9939C1.08149 12.0529 1.15794 12.0941 1.2411 12.1129C1.32425 12.1317 1.41095 12.1274 1.49188 12.1006L3.68375 11.3703C4.43081 11.802 5.26716 12.0561 6.12811 12.1128C6.98906 12.1696 7.85152 12.0275 8.64879 11.6976C9.44605 11.3677 10.1567 10.8589 10.7259 10.2104C11.295 9.56187 11.7073 8.79115 11.9309 7.95781C12.1545 7.12447 12.1835 6.25086 12.0154 5.40456C11.8474 4.55827 11.4869 3.76197 10.9619 3.07726C10.4369 2.39256 9.76142 1.83782 8.98771 1.45594C8.21401 1.07406 7.36282 0.875289 6.5 0.875ZM4.625 5.5625C4.625 5.43818 4.67439 5.31895 4.7623 5.23104C4.8502 5.14314 4.96943 5.09375 5.09375 5.09375H7.90625C8.03057 5.09375 8.1498 5.14314 8.23771 5.23104C8.32562 5.31895 8.375 5.43818 8.375 5.5625C8.375 5.68682 8.32562 5.80605 8.23771 5.89396C8.1498 5.98186 8.03057 6.03125 7.90625 6.03125H5.09375C4.96943 6.03125 4.8502 5.98186 4.7623 5.89396C4.67439 5.80605 4.625 5.68682 4.625 5.5625ZM5.09375 6.96875H6.96875C7.09307 6.96875 7.2123 7.01814 7.30021 7.10604C7.38812 7.19395 7.4375 7.31318 7.4375 7.4375C7.4375 7.56182 7.38812 7.68105 7.30021 7.76896C7.2123 7.85687 7.09307 7.90625 6.96875 7.90625H5.09375C4.96943 7.90625 4.8502 7.85687 4.7623 7.76896C4.67439 7.68105 4.625 7.56182 4.625 7.4375C4.625 7.31318 4.67439 7.19395 4.7623 7.10604C4.8502 7.01814 4.96943 6.96875 5.09375 6.96875Z" fill="currentColor"/>
</svg>
