<svg width="7" height="17" viewBox="0 0 7 17" fill="none" xmlns="http://www.w3.org/2000/svg">
<path d="M3.49998 3.75016V2.9585L2.0156 4.44287C2.00241 4.45607 1.89685 4.48905 1.69894 4.54183C1.56699 4.54183 1.46487 4.48562 1.39256 4.3732C1.32026 4.26079 1.31683 4.14547 1.38227 4.02725L1.91665 2.9585V2.16683C1.69234 2.16683 1.50445 2.09083 1.35298 1.93883C1.20151 1.78683 1.12551 1.59894 1.12498 1.37516C1.12498 1.15086 1.20098 0.962968 1.35298 0.811496C1.50498 0.660024 1.69287 0.584024 1.91665 0.583496H5.87498C6.09929 0.583496 6.28744 0.659496 6.43944 0.811496C6.59144 0.963496 6.66717 1.15139 6.66665 1.37516V1.9887C6.66665 2.05468 6.66005 2.11088 6.64685 2.15733C6.63366 2.20377 6.61387 2.25972 6.58748 2.32516L5.87498 3.75016H3.49998ZM1.91665 16.4168C1.48123 16.4168 1.10862 16.2619 0.798813 15.9521C0.489008 15.6423 0.333841 15.2694 0.333313 14.8335V10.9345C0.333313 10.8026 0.346508 10.6741 0.372896 10.549C0.399285 10.4239 0.445466 10.3017 0.511438 10.1825L3.04477 5.39287C3.18991 5.12898 3.38466 4.92104 3.62902 4.76904C3.87338 4.61704 4.14704 4.5413 4.44998 4.54183H5.87498C6.09929 4.54183 6.28744 4.61783 6.43944 4.76983C6.59144 4.92183 6.66717 5.10972 6.66665 5.3335V14.8335C6.66665 15.2689 6.51174 15.6418 6.20194 15.9521C5.89213 16.2625 5.51926 16.4174 5.08331 16.4168H1.91665Z" fill="currentColor"/>
</svg>
