<svg width="11" height="15" viewBox="0 0 11 15" fill="none" xmlns="http://www.w3.org/2000/svg">
<path d="M1.95835 14.5834C1.56877 14.5834 1.23538 14.4448 0.958187 14.1676C0.680992 13.8904 0.542159 13.5568 0.541687 13.1667V7.50008C0.541687 6.49661 0.804479 5.59939 1.33006 4.80841C1.85565 4.01744 2.5373 3.42716 3.37502 3.03758V2.54175C3.37502 1.95147 3.58162 1.44973 3.99481 1.03654C4.40801 0.623345 4.90974 0.416748 5.50002 0.416748C6.0903 0.416748 6.59203 0.623345 7.00523 1.03654C7.41842 1.44973 7.62502 1.95147 7.62502 2.54175V3.03758C8.46321 3.42716 9.1451 4.01744 9.67069 4.80841C10.1963 5.59939 10.4588 6.49661 10.4584 7.50008V13.1667C10.4584 13.5563 10.3198 13.89 10.0426 14.1676C9.76537 14.4453 9.43174 14.5839 9.04169 14.5834H1.95835ZM7.62502 10.3334C7.82571 10.3334 7.99406 10.2654 8.13006 10.1294C8.26606 9.99341 8.33383 9.8253 8.33335 9.62508V8.91675C8.33335 8.52716 8.19476 8.19378 7.91756 7.91658C7.64037 7.63939 7.30674 7.50055 6.91669 7.50008H3.37502C3.17433 7.50008 3.00621 7.56808 2.87069 7.70408C2.73516 7.84008 2.66716 8.00819 2.66669 8.20841C2.66669 8.40911 2.73469 8.57746 2.87069 8.71346C3.00669 8.84946 3.1748 8.91722 3.37502 8.91675H6.91669V9.62508C6.91669 9.82578 6.98469 9.99412 7.12069 10.1301C7.25669 10.2661 7.4248 10.3339 7.62502 10.3334ZM4.79169 2.61258C4.92155 2.58897 5.0396 2.57126 5.14585 2.55946C5.2521 2.54765 5.37016 2.54175 5.50002 2.54175C5.62988 2.54175 5.74794 2.54765 5.85419 2.55946C5.96044 2.57126 6.07849 2.58897 6.20835 2.61258V2.54175C6.20835 2.34105 6.14035 2.17294 6.00435 2.03741C5.86835 1.90189 5.70024 1.83389 5.50002 1.83341C5.29933 1.83341 5.13121 1.90141 4.99569 2.03741C4.86016 2.17341 4.79216 2.34153 4.79169 2.54175V2.61258Z" fill="currentColor"/>
</svg>
