<svg width="13" height="13" viewBox="0 0 13 13" fill="none" xmlns="http://www.w3.org/2000/svg">
<path d="M7.71875 6.09375C7.71875 6.7665 7.17275 7.3125 6.5 7.3125C5.82725 7.3125 5.28125 6.7665 5.28125 6.09375C5.28125 5.421 5.82725 4.875 6.5 4.875C7.17275 4.875 7.71875 5.421 7.71875 6.09375Z" fill="currentColor"/>
<path d="M11.5944 3.25H9.53062C8.75469 3.25 8.125 3.87969 8.125 4.65562V7.3125C8.125 7.761 8.489 8.125 8.9375 8.125V13H12.1875V8.125C12.636 8.125 13 7.761 13 7.3125V4.65562C13 3.87969 12.3703 3.25 11.5944 3.25Z" fill="currentColor"/>
<path d="M12.1875 1.625C12.1875 2.52281 11.4603 3.25 10.5625 3.25C9.66469 3.25 8.9375 2.52281 8.9375 1.625C8.9375 0.727188 9.66469 0 10.5625 0C11.4603 0 12.1875 0.727188 12.1875 1.625Z" fill="currentColor"/>
<path d="M3.46937 4.0625H1.40562C0.629688 4.0625 0 4.69219 0 5.46812C0 6.24406 0.629688 6.87375 1.40562 6.87375C2.18156 6.87375 2.81125 6.24406 2.81125 5.46812C2.81125 4.69219 2.18156 4.0625 1.40562 4.0625C0.629688 4.0625 0 4.69219 0 5.46812V7.3125C0 7.761 0.364 8.125 0.8125 8.125L0 10.5625H0.8125V13H4.0625V10.5625H4.875L4.0625 8.125C4.511 8.125 4.875 7.761 4.875 7.3125V5.46812C4.875 4.69219 4.24531 4.0625 3.46937 4.0625Z" fill="currentColor"/>
<path d="M4.0625 2.4375C4.0625 3.33531 3.33531 4.0625 2.4375 4.0625C1.53969 4.0625 0.8125 3.33531 0.8125 2.4375C0.8125 1.53969 1.53969 0.8125 2.4375 0.8125C3.33531 0.8125 4.0625 1.53969 4.0625 2.4375Z" fill="currentColor"/>
<path d="M5.6875 10.5625V13H7.3125V10.5625C7.761 10.5625 8.125 10.1985 8.125 9.75V8.49875C8.125 7.84387 7.59363 7.3125 6.93875 7.3125H6.06125C5.40638 7.3125 4.875 7.84387 4.875 8.49875V9.75C4.875 10.1985 5.239 10.5625 5.6875 10.5625Z" fill="currentColor"/>
</svg>
