<svg width="11" height="13" viewBox="0 0 11 13" fill="none" xmlns="http://www.w3.org/2000/svg">
<path d="M5.49729 0.385973C5.51845 0.505308 5.92302 2.78538 5.92302 3.65628C5.92302 4.9842 5.18792 5.93127 4.10114 6.31213L4.44225 12.3576C4.46076 12.7055 4.17253 13 3.80763 13H2.11532C1.75306 13 1.4622 12.708 1.48071 12.3576L1.82181 6.31213C0.732391 5.93127 -6.10352e-05 4.98166 -6.10352e-05 3.65628C-6.10352e-05 2.78284 0.404506 0.505308 0.42566 0.385973C0.510276 -0.129456 1.6235 -0.137073 1.69225 0.413902V3.99905C1.72662 4.08538 2.09153 4.0803 2.11532 3.99905C2.15234 3.35667 2.32422 0.464683 2.32686 0.398668C2.41412 -0.129456 3.50883 -0.129456 3.59345 0.398668C3.59874 0.467223 3.76797 3.35667 3.80499 3.99905C3.82878 4.0803 4.19633 4.08538 4.22806 3.99905V0.413902C4.29681 -0.134534 5.41268 -0.129456 5.49729 0.385973ZM8.64922 7.64005L8.25258 12.3398C8.22085 12.6953 8.51436 13 8.88455 13H10.3653C10.717 13 10.9999 12.7283 10.9999 12.3906V0.60941C10.9999 0.274254 10.717 3.62896e-05 10.3653 3.62896e-05C8.18383 3.62896e-05 4.511 4.53225 8.64922 7.64005Z" fill="currentColor"/>
</svg>
