<svg width="16" height="14" viewBox="0 0 16 14" fill="none" xmlns="http://www.w3.org/2000/svg">
<path d="M7.52742 6.84991C7.71882 7.05225 8.03052 7.05225 8.22465 6.84991L11.2023 3.72739C12.0663 2.81961 12.0171 1.31577 11.0491 0.479085C10.207 -0.250963 8.95197 -0.119718 8.18091 0.689623L7.87467 1.00953L7.57117 0.692357C6.8001 -0.119718 5.54508 -0.250963 4.70293 0.479085C3.73773 1.31577 3.68578 2.81961 4.54981 3.72739L7.52742 6.84991ZM15.4568 8.9717C15.1341 8.67913 14.631 8.69827 14.292 8.9717L11.7655 10.9923C11.4565 11.2411 11.071 11.3751 10.6718 11.3751H7.43719C7.19657 11.3751 6.99971 11.1782 6.99971 10.9376C6.99971 10.697 7.19657 10.5001 7.43719 10.5001H9.57811C10.0129 10.5001 10.4175 10.2021 10.4886 9.77283C10.5789 9.22598 10.1578 8.75022 9.62459 8.75022H5.24978C4.51153 8.75022 3.79789 9.00451 3.22369 9.46933L1.95226 10.5001H0.437482C0.196867 10.5001 0 10.697 0 10.9376V13.5625C0 13.8031 0.196867 14 0.437482 14H10.1933C10.5898 14 10.9753 13.866 11.287 13.6172L15.4212 10.3087C15.8368 9.9779 15.8696 9.34356 15.4568 8.9717Z" fill="currentColor"/>
</svg>
