<svg width="17" height="19" viewBox="0 0 17 19" fill="none" xmlns="http://www.w3.org/2000/svg">
<path fill-rule="evenodd" clip-rule="evenodd" d="M1.10689 1.1134C-1.19209e-07 2.22585 0 4.01755 0 7.6V11.4C0 14.9824 -1.19209e-07 16.7741 1.10689 17.8866C2.21283 19 3.99406 19 7.55556 19H9.44444C13.0059 19 14.7872 19 15.8931 17.8866C17 16.7741 17 14.9824 17 11.4V7.6C17 4.01755 17 2.22585 15.8931 1.1134C14.7872 -1.19209e-07 13.0059 0 9.44444 0H7.55556C3.99406 0 2.21283 -1.19209e-07 1.10689 1.1134ZM4.72222 6.8875C4.53436 6.8875 4.35419 6.96257 4.22135 7.09619C4.08852 7.22981 4.01389 7.41103 4.01389 7.6C4.01389 7.78897 4.08852 7.97019 4.22135 8.10381C4.35419 8.23743 4.53436 8.3125 4.72222 8.3125H12.2778C12.4656 8.3125 12.6458 8.23743 12.7786 8.10381C12.9115 7.97019 12.9861 7.78897 12.9861 7.6C12.9861 7.41103 12.9115 7.22981 12.7786 7.09619C12.6458 6.96257 12.4656 6.8875 12.2778 6.8875H4.72222ZM4.72222 10.6875C4.53436 10.6875 4.35419 10.7626 4.22135 10.8962C4.08852 11.0298 4.01389 11.211 4.01389 11.4C4.01389 11.589 4.08852 11.7702 4.22135 11.9038C4.35419 12.0374 4.53436 12.1125 4.72222 12.1125H9.44444C9.63231 12.1125 9.81247 12.0374 9.94531 11.9038C10.0781 11.7702 10.1528 11.589 10.1528 11.4C10.1528 11.211 10.0781 11.0298 9.94531 10.8962C9.81247 10.7626 9.63231 10.6875 9.44444 10.6875H4.72222Z" fill="#AAAAAA"/>
</svg>
