<svg width="13" height="13" viewBox="0 0 13 13" fill="none" xmlns="http://www.w3.org/2000/svg">
<path fill-rule="evenodd" clip-rule="evenodd" d="M12.75 6.5C12.75 9.95187 9.95188 12.75 6.50001 12.75C5.50001 12.75 4.55501 12.515 3.71751 12.0975C3.49627 11.9832 3.24089 11.9536 2.99938 12.0144L1.60813 12.3869C1.47043 12.4236 1.32548 12.4235 1.18784 12.3865C1.05019 12.3495 0.924702 12.277 0.823954 12.1762C0.723207 12.0754 0.650749 11.9498 0.613855 11.8122C0.57696 11.6745 0.576927 11.5296 0.613758 11.3919L0.985633 10.0006C1.04612 9.75925 1.01633 9.50408 0.901883 9.28312C0.471653 8.41854 0.248478 7.46571 0.250008 6.5C0.250008 3.04813 3.04813 0.25 6.50001 0.25C9.95188 0.25 12.75 3.04813 12.75 6.5ZM6.50001 3.53125C6.62433 3.53125 6.74356 3.58064 6.83146 3.66854C6.91937 3.75645 6.96876 3.87568 6.96876 4V4.00625C7.64938 4.17813 8.21876 4.71438 8.21876 5.45813C8.21876 5.58245 8.16937 5.70167 8.08146 5.78958C7.99356 5.87749 7.87433 5.92688 7.75001 5.92688C7.62569 5.92688 7.50646 5.87749 7.41855 5.78958C7.33064 5.70167 7.28126 5.58245 7.28126 5.45813C7.28126 5.21813 7.01501 4.88562 6.50001 4.88562C5.98501 4.88562 5.71876 5.21813 5.71876 5.45813C5.71876 5.69812 5.98501 6.03125 6.50001 6.03125C7.36563 6.03125 8.21876 6.63125 8.21876 7.54187C8.21876 8.28562 7.64938 8.8225 6.96876 8.99375V9C6.96876 9.12432 6.91937 9.24355 6.83146 9.33146C6.74356 9.41936 6.62433 9.46875 6.50001 9.46875C6.37569 9.46875 6.25646 9.41936 6.16855 9.33146C6.08064 9.24355 6.03126 9.12432 6.03126 9V8.99375C5.35063 8.8225 4.78126 8.28562 4.78126 7.54187C4.78126 7.41755 4.83064 7.29833 4.91855 7.21042C5.00646 7.12251 5.12569 7.07312 5.25001 7.07312C5.37433 7.07312 5.49356 7.12251 5.58146 7.21042C5.66937 7.29833 5.71876 7.41755 5.71876 7.54187C5.71876 7.78187 5.98501 8.11438 6.50001 8.11438C7.01501 8.11438 7.28126 7.78187 7.28126 7.54187C7.28126 7.30188 7.01501 6.96875 6.50001 6.96875C5.63438 6.96875 4.78126 6.36875 4.78126 5.45813C4.78126 4.71438 5.35063 4.17813 6.03126 4.00625V4C6.03126 3.87568 6.08064 3.75645 6.16855 3.66854C6.25646 3.58064 6.37569 3.53125 6.50001 3.53125Z" fill="currentColor"/>
</svg>
