<svg width="25" height="18" viewBox="0 0 25 18" fill="none" xmlns="http://www.w3.org/2000/svg">
<path d="M6.25 18C4.52652 18 3.05417 17.4094 1.83295 16.2281C0.611742 15.0469 0.000757576 13.6031 0 11.8969C0 10.4344 0.445076 9.13125 1.33523 7.9875C2.22538 6.84375 3.39015 6.1125 4.82955 5.79375C5.30303 4.06875 6.25 2.67188 7.67045 1.60313C9.09091 0.534375 10.7008 0 12.5 0C14.7159 0 16.5958 0.76425 18.1398 2.29275C19.6837 3.82125 20.4553 5.682 20.4545 7.875C21.7614 8.025 22.8458 8.583 23.708 9.549C24.5701 10.515 25.0008 11.6445 25 12.9375C25 14.3438 24.503 15.5393 23.5091 16.524C22.5152 17.5088 21.3076 18.0008 19.8864 18H6.25Z" fill="currentColor"/>
</svg>
