<svg width="13" height="13" viewBox="0 0 13 13" fill="none" xmlns="http://www.w3.org/2000/svg">
<path d="M11.9432 0.0383169L3.819 2.43748C3.65409 2.48928 3.50999 2.59233 3.40766 2.73165C3.30533 2.87096 3.2501 3.03929 3.25 3.21215V9.84951C2.98394 9.78493 2.71128 9.75153 2.4375 9.74998C1.0918 9.74998 0 10.4777 0 11.375C0 12.2723 1.0918 13 2.4375 13C3.7832 13 4.875 12.2723 4.875 11.375V5.4417L11.375 3.5374V8.22476C11.109 8.15996 10.8363 8.12647 10.5625 8.12498C9.2168 8.12498 8.125 8.85267 8.125 9.74998C8.125 10.6473 9.2168 11.375 10.5625 11.375C11.9082 11.375 13 10.6475 13 9.74998V0.812477C12.9999 0.684925 12.9697 0.559192 12.912 0.445455C12.8543 0.331719 12.7706 0.233173 12.6677 0.157793C12.5648 0.0824138 12.4456 0.0323188 12.3197 0.0115624C12.1939 -0.00919398 12.0649 -2.85516e-05 11.9432 0.0383169Z" fill="currentColor"/>
</svg>
