<svg width="13" height="16" viewBox="0 0 13 16" fill="none" xmlns="http://www.w3.org/2000/svg">
<path d="M8.42419 2.97327C9.24525 2.97327 9.91083 2.30769 9.91083 1.48663C9.91083 0.665578 9.24525 0 8.42419 0C7.60314 0 6.93756 0.665578 6.93756 1.48663C6.93756 2.30769 7.60314 2.97327 8.42419 2.97327ZM3.52109 9.83253L3.06271 10.9017H0.991028C0.443761 10.9017 -6.10352e-05 11.3455 -6.10352e-05 11.8928C-6.10352e-05 12.44 0.443761 12.8838 0.991028 12.8838H3.38977C3.98597 12.8838 4.52271 12.5295 4.75593 11.9829L5.02817 11.3473L4.6977 11.1522C4.16127 10.8354 3.7667 10.3665 3.52109 9.83253ZM11.893 6.93731H10.5293L9.72221 5.28808C9.33507 4.49676 8.62427 3.91821 7.80879 3.71039L5.60733 3.05565C4.73084 2.84504 3.81811 3.03862 3.1036 3.5865L1.87496 4.52835C1.44042 4.86129 1.35804 5.4832 1.6916 5.91773C2.02517 6.35226 2.64677 6.43371 3.08099 6.10108L4.31025 5.15924C4.5478 4.97681 4.85039 4.91146 5.0929 4.96907L5.54818 5.10442L4.38798 7.81102C3.99712 8.72406 4.34741 9.79351 5.20254 10.2983L7.8345 11.8522L6.98371 14.5693C6.82018 15.0915 7.111 15.6474 7.63318 15.811C7.73198 15.8419 7.83171 15.8568 7.92989 15.8568C8.35141 15.8568 8.74227 15.5852 8.87514 15.1615L9.85508 12.0315C10.0381 11.3882 9.76557 10.6973 9.18485 10.347L7.28816 9.22766L8.25788 6.80321L8.88567 8.08636C9.13344 8.59243 9.65748 8.91918 10.2209 8.91918H11.893C12.4403 8.91918 12.8841 8.47536 12.8841 7.92809C12.8841 7.38082 12.4403 6.93731 11.893 6.93731Z" fill="currentColor"/>
</svg>
