<svg width="15" height="9" viewBox="0 0 15 9" fill="none" xmlns="http://www.w3.org/2000/svg">
<path d="M14.5859 2.09067L8.04828 0.0820894C7.69203 -0.0273631 7.30766 -0.0273631 6.95164 0.0820894L0.413787 2.09067C-0.137929 2.26012 -0.137929 2.98973 0.413787 3.15918L1.55355 3.50934C1.30347 3.81848 1.14972 4.19558 1.13449 4.60855C0.908784 4.73793 0.749879 4.97136 0.749879 5.25003C0.749879 5.50269 0.883003 5.71526 1.07472 5.8512L0.476365 8.54369C0.424334 8.77783 0.602458 9.00001 0.842222 9.00001H2.15729C2.39729 9.00001 2.57542 8.77783 2.52339 8.54369L1.92503 5.8512C2.11675 5.71526 2.24987 5.50269 2.24987 5.25003C2.24987 4.97886 2.09823 4.75199 1.88284 4.62027C1.90065 4.26824 2.08065 3.95699 2.36776 3.75965L6.95141 5.168C7.16375 5.23316 7.57109 5.31448 8.04805 5.168L14.5859 3.15942C15.1379 2.98973 15.1379 2.26036 14.5859 2.09067ZM8.26836 5.88495C7.59969 6.09026 7.02993 5.97682 6.7311 5.88495L3.33221 4.84082L2.99987 7.50002C2.99987 8.32853 5.01454 9.00001 7.49984 9.00001C9.98514 9.00001 11.9998 8.32853 11.9998 7.50002L11.6675 4.84058L8.26836 5.88495Z" fill="currentColor"/>
</svg>
